<?xml version="1.0" encoding="iso-8859-1"?>
<!-- Generator: Adobe Illustrator 19.0.0, SVG Export Plug-In . SVG Version: 6.00 Build 0)  -->
<svg version="1.1" id="Layer_1" xmlns="http://www.w3.org/2000/svg" xmlns:xlink="http://www.w3.org/1999/xlink" x="0px" y="0px"
	 viewBox="0 0 473.654 473.654" style="enable-background:new 0 0 473.654 473.654;" xml:space="preserve">
<circle style="fill:#A44A24;" cx="236.827" cy="236.827" r="236.827"/>
<path style="fill:#CCCD2B;" d="M337.938,150.376c-24.401-28.522-60.637-46.625-101.122-46.625
	c-73.486,0-133.065,59.575-133.065,133.065c0,41.655,19.154,78.823,49.116,103.223c22.901,18.649,52.118,29.842,83.95,29.842
	c73.494,0,133.065-59.571,133.065-133.065C369.881,203.807,357.84,173.632,337.938,150.376z"/>
<path style="fill:#D3DE32;" d="M298.152,299.177c41.779-41.779,55.454-100.108,39.785-148.801
	c-24.401-28.522-60.637-46.625-101.122-46.625c-73.486,0-133.065,59.575-133.065,133.065c0,41.655,19.154,78.823,49.116,103.223
	C200.826,353.962,257.376,339.957,298.152,299.177z"/>
<g>
	<path style="fill:#BDBF31;" d="M329.213,296.597c-18.343-2.068-66.22-15.115-66.22-15.115c-7.704-1.758-14.293-4.132-19.334-9.502
		c5.247,6.855,12.819,11.989,21.873,14.057c0,0,47.878,13.047,66.217,15.115c3.938,0.445,11.963,0.079,22.12-0.767
		c0.598-1.092,1.156-2.214,1.72-3.324C343.446,298.16,333.678,297.102,329.213,296.597z"/>
	<path style="fill:#BDBF31;" d="M352.182,204.039c-14.397-0.845-67.223-15.347-67.223-15.347
		c-28.937-6.608-58.711,13.601-65.319,42.538l-0.568,2.494c-4.02,17.613,1.174,35.189,12.356,47.762
		c-9.446-12.296-13.563-28.552-9.854-44.811l0.568-2.491c6.612-28.941,35.526-47.111,64.463-40.503c0,0,52.825,14.506,67.219,15.347
		c2.199,0.127,6.634-0.101,12.546-0.58c-0.239-1.036-0.984-3.534-1.245-4.562C358.337,204.469,354.594,204.181,352.182,204.039z"/>
</g>
<g>
	<path style="fill:#FFFFFF;" d="M328.32,313.877c-21.985-2.367-68.745-15.688-68.745-15.688c-11.323-2.584-20.96-8.62-28.148-16.701
		c7.367,9.585,17.976,16.761,30.65,19.659c0,0,46.763,13.32,68.745,15.688c2.838,0.307,7.09,0.303,12.303,0.071
		c0.811-1.062,1.589-2.143,2.363-3.227C338.031,314.15,331.992,314.278,328.32,313.877z"/>
	<path style="fill:#FFFFFF;" d="M350.413,221.76c-18.002-1.256-69.758-15.923-69.758-15.923
		c-20.613-4.708-41.203,8.231-45.903,28.843l-0.568,2.494c-2.947,12.909,1.028,25.811,9.476,34.808
		c-6.698-8.747-9.607-20.295-6.971-31.854l0.568-2.494c4.704-20.609,25.294-33.548,45.903-28.843c0,0,51.756,14.667,69.758,15.927
		c3.059,0.217,8.784-0.056,16.106-0.636c-0.112-1.047-0.262-2.083-0.396-3.126C360.271,221.656,353.767,221.992,350.413,221.76z"/>
	<path style="fill:#FFFFFF;" d="M331.745,301.152c-18.339-2.068-66.217-15.115-66.217-15.115
		c-9.053-2.068-16.622-7.202-21.873-14.057c-8.448-8.994-12.423-21.895-9.476-34.808l0.568-2.494
		c4.704-20.613,25.294-33.551,45.903-28.843c0,0,51.756,14.667,69.758,15.923c3.351,0.236,9.858-0.101,18.212-0.804
		c-0.55-4.237-1.309-8.407-2.255-12.509c-5.912,0.479-10.351,0.707-12.546,0.58c-14.394-0.841-67.219-15.347-67.219-15.347
		c-28.937-6.608-57.855,11.563-64.463,40.503l-0.568,2.491c-3.71,16.263,0.404,32.516,9.854,44.811
		c7.187,8.081,16.824,14.113,28.148,16.701c0,0,46.76,13.324,68.745,15.688c3.669,0.396,9.712,0.269,17.168-0.202
		c3.04-4.256,5.856-8.68,8.377-13.294C343.712,301.23,335.683,301.597,331.745,301.152z"/>
</g>
<g>
</g>
<g>
</g>
<g>
</g>
<g>
</g>
<g>
</g>
<g>
</g>
<g>
</g>
<g>
</g>
<g>
</g>
<g>
</g>
<g>
</g>
<g>
</g>
<g>
</g>
<g>
</g>
<g>
</g>
</svg>
